<svg xmlns="http://www.w3.org/2000/svg" version="1.1" xmlns:xlink="http://www.w3.org/1999/xlink" width="512" height="512" x="0" y="0" viewBox="0 0 24 24" style="enable-background:new 0 0 512 512" xml:space="preserve" fill-rule="evenodd" class=""><g><path d="M22.75 10.75H1.25v7.75a3.247 3.247 0 0 0 3.25 3.25h15a3.247 3.247 0 0 0 3.25-3.25zm-5-7.5V5.5a.75.75 0 0 1-1.5 0V3.25h-8.5V5.5a.75.75 0 0 1-1.5 0V3.25H4.5A3.247 3.247 0 0 0 1.25 6.5v2.75h21.5V6.5a3.247 3.247 0 0 0-3.25-3.25z" fill="#000000" opacity="1" data-original="#000000" class=""></path><path d="M6.25 3.25h1.5V2a.75.75 0 0 0-1.5 0zM16.25 3.25h1.5V2a.75.75 0 0 0-1.5 0z" fill="#000000" opacity="1" data-original="#000000" class=""></path></g></svg>