<svg xmlns="http://www.w3.org/2000/svg" version="1.1" xmlns:xlink="http://www.w3.org/1999/xlink" width="512" height="512" x="0" y="0" viewBox="0 0 512 512" style="enable-background:new 0 0 512 512" xml:space="preserve" class=""><g><path d="m441.95 91.701-22.925-22.925V0l-71.323 73.871-5.094 58.587-73.871 73.871h-12.736c-28.02 0-50.945 22.925-50.945 50.945s22.925 50.945 50.945 50.945 50.945-22.925 50.945-50.945c0-5.094 0-7.642-2.547-12.736l73.871-73.871 58.587-5.095 73.871-73.871H441.95z" fill="#000000" opacity="1" data-original="#000000" class=""></path><path d="M393.552 193.592h-2.547l-35.662 38.209c2.547 7.642 2.547 17.831 2.547 25.473 0 56.04-45.851 101.891-101.891 101.891s-101.891-45.851-101.891-101.891S199.96 155.383 256 155.383c10.189 0 17.831 2.547 25.473 2.547l38.209-38.209v-2.547c-20.378-7.642-40.756-12.736-63.682-12.736-84.06 0-152.836 68.776-152.836 152.836S171.94 410.109 256 410.109s152.836-68.776 152.836-152.836c0-22.925-5.095-43.303-15.284-63.681z" fill="#000000" opacity="1" data-original="#000000" class=""></path><path d="m487.801 152.836-38.209 35.662c5.095 20.378 10.189 43.304 10.189 68.776 0 112.08-91.701 203.781-203.781 203.781S52.219 369.353 52.219 257.274 143.92 53.493 256 53.493c22.925 0 45.851 5.095 68.776 12.736v-2.547l38.209-38.209C329.871 10.189 294.209 2.547 256 2.547 115.9 2.547 1.274 117.174 1.274 257.274S115.9 512 256 512s254.726-114.627 254.726-254.726c0-38.209-7.641-73.871-22.925-104.438z" fill="#000000" opacity="1" data-original="#000000" class=""></path></g></svg>