<svg xmlns="http://www.w3.org/2000/svg" version="1.1" xmlns:xlink="http://www.w3.org/1999/xlink" width="512" height="512" x="0" y="0" viewBox="0 0 24 24" style="enable-background:new 0 0 512 512" xml:space="preserve" class=""><g><path d="M1.17 22.88A1.12 1.12 0 0 0 2.28 24h19.44a1.12 1.12 0 0 0 1.11-1.12V9.3H1.17zm7.31-9.64a1.37 1.37 0 0 1 1.36-1.17H14a1.4 1.4 0 0 1 1.4 1.4 1.46 1.46 0 0 1-.27.82 10 10 0 0 0-1.88 6 .93.93 0 0 1-.92.93h-1.68a.89.89 0 0 1-.68-.31.92.92 0 0 1-.23-.73A10.21 10.21 0 0 1 12 14.83H9.84a1.38 1.38 0 0 1-1-.48 1.36 1.36 0 0 1-.36-1.11zM1.17 8.29h21.67v.32H1.17z" fill="#000000" opacity="1" data-original="#000000" class=""></path><rect width="1.56" height="5.44" x="4.19" rx=".43" fill="#000000" opacity="1" data-original="#000000" class=""></rect><rect width="1.56" height="5.44" x="18.25" rx=".43" fill="#000000" opacity="1" data-original="#000000" class=""></rect><path d="M21.72 2.33h-1.23V5a1.11 1.11 0 0 1-1.11 1.11h-.7A1.11 1.11 0 0 1 17.57 5V2.33H6.43V5a1.11 1.11 0 0 1-1.11 1.12h-.7A1.11 1.11 0 0 1 3.51 5V2.33H2.28a1.12 1.12 0 0 0-1.11 1.12v4.16h21.66V3.45a1.12 1.12 0 0 0-1.11-1.12zM9.84 14.15H13a.25.25 0 0 1 .23.15.25.25 0 0 1-.05.26 9.73 9.73 0 0 0-2.78 5.71.36.36 0 0 0 .06.2.27.27 0 0 0 .18.08h1.67a.25.25 0 0 0 .24-.25 10.8 10.8 0 0 1 2-6.41.7.7 0 0 0 .15-.42.72.72 0 0 0-.72-.72H9.84a.69.69 0 0 0-.69.6.69.69 0 0 0 .69.8z" fill="#000000" opacity="1" data-original="#000000" class=""></path></g></svg>